<?xml version="1.0" encoding="UTF-8"?>
<svg xmlns="http://www.w3.org/2000/svg" xmlns:xlink="http://www.w3.org/1999/xlink" width="288px" height="93px" viewBox="0 0 288 93" version="1.1">
<g id="surface1">
<path style=" stroke:none;fill-rule:nonzero;fill:rgb(0%,0%,0%);fill-opacity:1;" d="M 8.699219 19.242188 C 8.5 21.046875 8.300781 35.476562 8.398438 51.210938 C 8.5 82.378906 8.699219 83.179688 14 83.179688 C 17.101562 83.179688 19.199219 80.972656 27.5 69.550781 C 32.5 62.535156 46.101562 43.792969 53 34.574219 C 58.398438 27.257812 64.5 18.742188 65.398438 17.238281 C 65.898438 16.335938 64.601562 16.035156 59.800781 16.035156 L 53.5 16.035156 L 20.5 60.128906 L 20.199219 38.082031 L 20 16.035156 L 14.601562 16.035156 C 9.300781 16.035156 9.199219 16.035156 8.699219 19.242188 Z M 8.699219 19.242188 "/>
<path style=" stroke:none;fill-rule:nonzero;fill:rgb(0%,0%,0%);fill-opacity:1;" d="M 160.101562 49.605469 L 160.5 83.179688 L 184 83.179688 C 204.800781 83.179688 207.699219 82.976562 209.601562 81.375 C 213.199219 78.46875 214 75.664062 214 65.441406 C 214 56.523438 213.800781 55.320312 211.601562 52.613281 L 209.199219 49.605469 L 211.601562 46.398438 C 213.800781 43.492188 214 42.289062 214 32.769531 C 214 22.546875 213.898438 22.148438 211.101562 19.140625 L 208.199219 16.035156 L 159.800781 16.035156 Z M 201.800781 35.277344 L 201.5 43.59375 L 188.101562 43.894531 C 180.699219 43.996094 174.101562 43.996094 173.601562 43.792969 C 172.898438 43.492188 172.601562 40.285156 172.800781 35.175781 L 173.199219 27.058594 L 202.101562 27.058594 Z M 202 63.636719 L 202 72.15625 L 173 72.15625 L 173 55.117188 L 202 55.117188 Z M 202 63.636719 "/>
<path style=" stroke:none;fill-rule:nonzero;fill:rgb(0%,0%,0%);fill-opacity:1;" d="M 276.398438 17.636719 C 274.601562 19.039062 274.601562 19.140625 276.898438 17.9375 C 278.199219 17.335938 281.300781 17.035156 283.800781 17.335938 C 286.601562 17.636719 287.699219 17.4375 286.898438 16.9375 C 284.601562 15.535156 278.5 15.933594 276.398438 17.636719 Z M 276.398438 17.636719 "/>
<path style=" stroke:none;fill-rule:nonzero;fill:rgb(0%,0%,0%);fill-opacity:1;" d="M 141 20.945312 C 140.5 22.046875 140 23.75 140 24.851562 C 140 27.058594 143 30.066406 145.199219 30.066406 C 148.898438 30.066406 151.601562 23.050781 148.800781 20.242188 C 146.898438 18.339844 142.199219 18.742188 141 20.945312 Z M 141 20.945312 "/>
<path style=" stroke:none;fill-rule:nonzero;fill:rgb(0%,0%,0%);fill-opacity:1;" d="M 277.601562 21.648438 C 277.300781 22.546875 277.101562 24.152344 277.101562 25.355469 C 277.199219 26.957031 277.398438 26.757812 277.898438 24.554688 C 278.300781 22.546875 279.199219 21.445312 280.601562 21.246094 C 284.898438 20.644531 286.601562 26.859375 282.5 28.058594 C 280.699219 28.5625 280.800781 28.863281 283.898438 32.070312 L 287.300781 35.578125 L 285.101562 32.269531 C 283.199219 29.464844 283.101562 28.960938 284.398438 28.460938 C 286.699219 27.558594 286.5 22.347656 284.101562 21.046875 C 281.199219 19.542969 278.300781 19.84375 277.601562 21.648438 Z M 277.601562 21.648438 "/>
<path style=" stroke:none;fill-rule:nonzero;fill:rgb(0%,0%,0%);fill-opacity:1;" d="M 270.398438 25.453125 C 269.5 29.164062 271.699219 34.773438 275 37.078125 C 277.898438 39.183594 286.398438 39.886719 287.398438 38.28125 C 287.699219 37.78125 285.800781 37.582031 283.101562 37.882812 C 278.800781 38.28125 277.898438 37.980469 274.898438 35.277344 C 272 32.671875 271.5 31.566406 271.5 27.660156 C 271.5 22.449219 271.300781 22.046875 270.398438 25.453125 Z M 270.398438 25.453125 "/>
<path style=" stroke:none;fill-rule:nonzero;fill:rgb(0%,0%,0%);fill-opacity:1;" d="M 277 29.164062 C 277 29.664062 277.5 29.863281 278 29.5625 C 278.601562 29.261719 279 28.761719 279 28.460938 C 279 28.261719 278.601562 28.058594 278 28.058594 C 277.5 28.058594 277 28.5625 277 29.164062 Z M 277 29.164062 "/>
<path style=" stroke:none;fill-rule:nonzero;fill:rgb(0%,0%,0%);fill-opacity:1;" d="M 277 33.070312 C 277 34.171875 277.398438 35.074219 277.898438 35.074219 C 278.398438 35.074219 278.601562 34.171875 278.300781 33.070312 C 278 31.96875 277.601562 31.066406 277.398438 31.066406 C 277.199219 31.066406 277 31.96875 277 33.070312 Z M 277 33.070312 "/>
<path style=" stroke:none;fill-rule:nonzero;fill:rgb(0%,0%,0%);fill-opacity:1;" d="M 89.5 35.777344 C 88.398438 36.078125 86.5 37.179688 85.300781 38.382812 C 83.101562 40.386719 83 40.886719 83 61.832031 L 83 83.179688 L 126 83.179688 L 126 72.15625 L 109.800781 71.953125 L 93.5 71.652344 L 93.5 66.644531 L 109.800781 66.34375 L 126 66.140625 L 126 54.515625 C 126 42.390625 124.898438 38.082031 121.300781 36.578125 C 119.300781 35.777344 92.601562 35.074219 89.5 35.777344 Z M 115 51.109375 L 115 55.21875 L 104.300781 54.917969 L 93.5 54.617188 L 93.300781 50.808594 L 93.101562 47.101562 L 115 47.101562 Z M 115 51.109375 "/>
<path style=" stroke:none;fill-rule:nonzero;fill:rgb(0%,0%,0%);fill-opacity:1;" d="M 229.898438 35.777344 C 228.398438 35.976562 226.199219 37.28125 224.898438 38.683594 C 222.398438 41.390625 222.300781 42.492188 222.800781 68.847656 L 223 83.179688 L 232.898438 83.179688 L 233.5 78.871094 C 233.898438 76.566406 234 68.445312 233.800781 60.832031 L 233.5 47.101562 L 256 47.101562 L 256 83.277344 L 261.5 82.976562 L 266.898438 82.679688 L 267.5 64.136719 C 267.800781 53.914062 267.699219 44.296875 267.199219 42.691406 C 265.601562 36.878906 262.898438 35.878906 246.898438 35.675781 C 239 35.578125 231.300781 35.578125 229.898438 35.777344 Z M 229.898438 35.777344 "/>
<path style=" stroke:none;fill-rule:nonzero;fill:rgb(0%,0%,0%);fill-opacity:1;" d="M 140.199219 59.828125 L 140.5 83.679688 L 149.5 83.679688 L 149.800781 59.828125 L 150 36.078125 L 140 36.078125 Z M 140.199219 59.828125 "/>
<path style=" stroke:none;fill-rule:nonzero;fill:rgb(0%,0%,0%);fill-opacity:1;" d="M 45.398438 54.417969 L 42.300781 58.625 L 45.898438 64.238281 C 47.898438 67.246094 51.398438 72.757812 53.800781 76.464844 L 58.101562 83.179688 L 64.199219 83.179688 C 69.101562 83.179688 70.101562 82.878906 69.601562 81.675781 C 68.800781 79.570312 49.601562 50.207031 49 50.207031 C 48.699219 50.207031 47.101562 52.113281 45.398438 54.417969 Z M 45.398438 54.417969 "/>
</g>
</svg>
