<?xml version="1.0" standalone="no"?>
<!DOCTYPE svg PUBLIC "-//W3C//DTD SVG 20010904//EN"
 "http://www.w3.org/TR/2001/REC-SVG-20010904/DTD/svg10.dtd">
<svg version="1.0" xmlns="http://www.w3.org/2000/svg"
 width="288.000000pt" height="93.000000pt" viewBox="0 0 288.000000 93.000000"
 preserveAspectRatio="xMidYMid meet">

<g transform="translate(0.000000,93.000000) scale(0.100000,-0.100000)"
fill="#000000" stroke="none">
<path d="M87 738 c-2 -18 -4 -162 -3 -319 1 -311 3 -319 56 -319 31 0 52 22
135 136 50 70 186 257 255 349 54 73 115 158 124 173 5 9 -8 12 -56 12 l-63 0
-165 -220 -165 -220 -3 220 -2 220 -54 0 c-53 0 -54 0 -59 -32z"/>
<path d="M1601 435 l4 -335 235 0 c208 0 237 2 256 18 36 29 44 57 44 159 0
89 -2 101 -24 128 l-24 30 24 32 c22 29 24 41 24 136 0 102 -1 106 -29 136
l-29 31 -242 0 -242 0 3 -335z m417 143 l-3 -83 -134 -3 c-74 -1 -140 -1 -145
1 -7 3 -10 35 -8 86 l4 81 144 0 145 0 -3 -82z m2 -283 l0 -85 -145 0 -145 0
0 85 0 85 145 0 145 0 0 -85z"/>
<path d="M2764 754 c-18 -14 -18 -15 5 -3 13 6 44 9 69 6 28 -3 39 -1 31 4
-23 14 -84 10 -105 -7z"/>
<path d="M1410 721 c-5 -11 -10 -28 -10 -39 0 -22 30 -52 52 -52 37 0 64 70
36 98 -19 19 -66 15 -78 -7z"/>
<path d="M2776 714 c-3 -9 -5 -25 -5 -37 1 -16 3 -14 8 8 4 20 13 31 27 33 43
6 60 -56 19 -68 -18 -5 -17 -8 14 -40 l34 -35 -22 33 c-19 28 -20 33 -7 38 23
9 21 61 -3 74 -29 15 -58 12 -65 -6z"/>
<path d="M2704 676 c-9 -37 13 -93 46 -116 29 -21 114 -28 124 -12 3 5 -16 7
-43 4 -43 -4 -52 -1 -82 26 -29 26 -34 37 -34 76 0 52 -2 56 -11 22z"/>
<path d="M2770 639 c0 -5 5 -7 10 -4 6 3 10 8 10 11 0 2 -4 4 -10 4 -5 0 -10
-5 -10 -11z"/>
<path d="M2770 600 c0 -11 4 -20 9 -20 5 0 7 9 4 20 -3 11 -7 20 -9 20 -2 0
-4 -9 -4 -20z"/>
<path d="M895 573 c-11 -3 -30 -14 -42 -26 -22 -20 -23 -25 -23 -234 l0 -213
215 0 215 0 0 55 0 55 -162 2 -163 3 0 25 0 25 163 3 162 2 0 116 c0 121 -11
164 -47 179 -20 8 -287 15 -318 8z m255 -153 l0 -41 -107 3 -108 3 -2 38 -2
37 109 0 110 0 0 -40z"/>
<path d="M2299 573 c-15 -2 -37 -15 -50 -29 -25 -27 -26 -38 -21 -301 l2 -143
49 0 50 0 6 43 c4 23 5 104 3 180 l-3 137 113 0 112 0 0 -180 0 -181 55 3 54
3 6 185 c3 102 2 198 -3 214 -16 58 -43 68 -203 70 -79 1 -156 1 -170 -1z"/>
<path d="M1402 333 l3 -238 45 0 45 0 3 238 2 237 -50 0 -50 0 2 -237z"/>
<path d="M454 387 l-31 -42 36 -56 c20 -30 55 -85 79 -122 l43 -67 61 0 c49 0
59 3 54 15 -8 21 -200 314 -206 314 -3 0 -19 -19 -36 -42z"/>
</g>
</svg>
