<?xml version="1.0" encoding="utf-8"?>
<svg viewBox="100.857 45.53 94.219 48.34" width="94.219" height="48.34" xmlns="http://www.w3.org/2000/svg">
  <defs>
    <clipPath id="clip0_111_997">
      <rect width="37" height="31" fill="white"/>
    </clipPath>
  </defs>
  <g clip-path="url(#clip0_111_997)" transform="matrix(1, 0, 0, 1, 100.856895, 50.369202)">
    <path d="M9.72835 4.80874L8.84937 5.28558L11.2519 9.71433L12.1309 9.23749L9.72835 4.80874Z" fill="#FD9636"/>
    <path d="M10.5871 2.19748C10.8228 2.6321 10.9244 3.12688 10.879 3.61924C10.8336 4.1116 10.6432 4.57944 10.3319 4.96359C10.0206 5.34774 9.60234 5.63095 9.13007 5.7774C8.6578 5.92386 8.15272 5.92698 7.67867 5.78638C7.20463 5.64577 6.78293 5.36776 6.4669 4.98749C6.15086 4.60722 5.95469 4.14177 5.90318 3.65001C5.85167 3.15825 5.94715 2.66225 6.17753 2.22475C6.40791 1.78725 6.76286 1.42789 7.19747 1.19211C7.78107 0.879883 8.46423 0.81033 9.09878 0.99854C9.73332 1.18675 10.2681 1.61755 10.5871 2.19748Z" fill="#36BEF9"/>
    <path d="M26.1603 4.80874L27.0393 5.28558L24.6368 9.71433L23.7578 9.23749L26.1603 4.80874Z" fill="#FD9636"/>
    <path d="M25.3016 2.19748C25.0658 2.6321 24.9642 3.12688 25.0097 3.61924C25.0551 4.1116 25.2455 4.57944 25.5568 4.96359C25.8681 5.34774 26.2863 5.63095 26.7586 5.7774C27.2309 5.92386 27.736 5.92698 28.21 5.78638C28.684 5.64577 29.1057 5.36776 29.4218 4.98749C29.7378 4.60722 29.934 4.14177 29.9855 3.65001C30.037 3.15825 29.9415 2.66225 29.7111 2.22475C29.4808 1.78725 29.1258 1.42789 28.6912 1.19211C28.1076 0.879883 27.4244 0.81033 26.7899 0.99854C26.1553 1.18675 25.6206 1.61755 25.3016 2.19748Z" fill="#36BEF9"/>
    <path d="M24.32 31.04H12.52C12.1169 31.04 11.7303 30.8799 11.4452 30.5948C11.1601 30.3097 11 29.9231 11 29.52C11 29.1169 11.1601 28.7303 11.4452 28.4452C11.7303 28.1601 12.1169 28 12.52 28H24.32C24.7231 28 25.1097 28.1601 25.3948 28.4452C25.6799 28.7303 25.84 29.1169 25.84 29.52C25.84 29.9231 25.6799 30.3097 25.3948 30.5948C25.1097 30.8799 24.7231 31.04 24.32 31.04Z" fill="#FD9636"/>
    <path d="M3.04 23.76C4.71895 23.76 6.08 22.399 6.08 20.72C6.08 19.0411 4.71895 17.68 3.04 17.68C1.36105 17.68 0 19.0411 0 20.72C0 22.399 1.36105 23.76 3.04 23.76Z" fill="#36BEF9"/>
    <path d="M33.78 23.56C35.4589 23.56 36.82 22.199 36.82 20.52C36.82 18.8411 35.4589 17.48 33.78 17.48C32.101 17.48 30.74 18.8411 30.74 20.52C30.74 22.199 32.101 23.56 33.78 23.56Z" fill="#36BEF9"/>
    <path d="M18.7899 7.00001C18.7899 7.00001 31.1699 6.85001 33.1299 17.57C35.0899 28.29 24.6199 28.45 21.6099 28.66C20.2399 28.75 17.3199 28.76 14.7499 28.71C8.99992 28.61 4.99992 27.51 3.62992 22.21C3.46931 21.5911 3.36884 20.9582 3.32992 20.32C2.99992 14.51 6.88993 6.67001 18.7899 7.00001Z" fill="#36BEF9"/>
    <path d="M9.81007 23.29L27.8101 23.57C28.2579 23.5766 28.7026 23.495 29.1189 23.3297C29.5351 23.1644 29.9148 22.9187 30.2361 22.6067C30.5574 22.2947 30.814 21.9224 30.9915 21.5112C31.1689 21.1 31.2636 20.6578 31.2701 20.21C31.278 19.7614 31.1973 19.3155 31.0326 18.8981C30.868 18.4807 30.6225 18.0999 30.3104 17.7776C29.9982 17.4552 29.6255 17.1976 29.2136 17.0196C28.8017 16.8415 28.3587 16.7465 27.9101 16.74L9.91007 16.46C9.0047 16.4466 8.13099 16.7928 7.4805 17.4227C6.83001 18.0526 6.45585 18.9147 6.44007 19.82C6.43345 20.2691 6.51538 20.7152 6.68117 21.1327C6.84695 21.5501 7.09336 21.9308 7.4063 22.2531C7.71924 22.5753 8.0926 22.8327 8.50504 23.0106C8.91748 23.1886 9.36093 23.2835 9.81007 23.29Z" fill="#FD9636"/>
    <path d="M24.0601 19.84C24.1362 20.1054 24.3095 20.3324 24.5453 20.476C24.7811 20.6196 25.0623 20.6693 25.3331 20.6151C25.6038 20.561 25.8443 20.407 26.0068 20.1837C26.1692 19.9605 26.2418 19.6843 26.2101 19.41C26.1825 19.2695 26.1276 19.1357 26.0483 19.0164C25.9691 18.8971 25.8671 18.7946 25.7483 18.7148C25.6294 18.6349 25.496 18.5792 25.3556 18.551C25.2152 18.5227 25.0706 18.5224 24.9301 18.55C24.7882 18.5776 24.6532 18.6328 24.5327 18.7125C24.4122 18.7923 24.3086 18.895 24.2278 19.0148C24.147 19.1346 24.0906 19.2691 24.0618 19.4107C24.0331 19.5523 24.0325 19.6982 24.0601 19.84Z" fill="#425A8B"/>
    <path d="M11.5001 19.63C11.5403 19.8447 11.6434 20.0425 11.7964 20.1983C11.9494 20.3541 12.1454 20.4608 12.3592 20.5049C12.5731 20.549 12.7953 20.5284 12.9974 20.4458C13.1996 20.3632 13.3725 20.2223 13.4943 20.041C13.6161 19.8597 13.6812 19.6463 13.6813 19.428C13.6814 19.2096 13.6164 18.9961 13.4948 18.8148C13.3731 18.6334 13.2003 18.4924 12.9982 18.4096C12.7961 18.3269 12.574 18.3061 12.3601 18.35C12.2189 18.3763 12.0844 18.4305 11.9644 18.5094C11.8444 18.5883 11.7414 18.6903 11.6613 18.8095C11.5813 18.9286 11.5257 19.0626 11.4981 19.2035C11.4704 19.3444 11.471 19.4894 11.5001 19.63Z" fill="#425A8B"/>
    <path d="M21.0482 19.5723C21.0482 19.5723 21.1184 19.661 21.1275 19.8433C21.1387 20.1008 21.0883 20.3572 20.9805 20.5913C20.8264 20.9552 20.5816 21.2734 20.2694 21.5156C19.8811 21.8121 19.4063 21.9728 18.9178 21.9732C18.4281 21.9535 17.9597 21.7679 17.5895 21.4468C17.2906 21.1984 17.0609 20.877 16.9224 20.5139C16.8264 20.2768 16.7871 20.0206 16.8077 19.7657C16.8296 19.577 16.84 19.4876 16.8996 19.4945C16.9592 19.5014 16.9552 19.8835 17.2301 20.3784C17.3853 20.6635 17.6004 20.9116 17.8606 21.1057C18.1648 21.3445 18.5359 21.4825 18.9222 21.5005C19.2961 21.4867 19.6585 21.3682 19.9685 21.1586C20.2418 20.9768 20.4696 20.7345 20.6344 20.4506C20.9735 19.9563 20.9775 19.5742 21.0482 19.5723Z" fill="#425A8B"/>
    <path d="M33.1 17.18C33.1419 17.2631 33.1754 17.3502 33.2 17.44C33.2 17.53 33.26 17.64 33.29 17.76C33.335 17.9011 33.3717 18.0447 33.4 18.19C33.472 18.5634 33.5221 18.9408 33.55 19.32C33.5848 19.786 33.5848 20.254 33.55 20.72C33.5043 21.1846 33.4275 21.6457 33.32 22.1C33.2402 22.4707 33.1333 22.835 33 23.19C32.95 23.34 32.88 23.47 32.83 23.59L32.68 23.89L32.54 24.13C32.5642 24.0386 32.6013 23.9511 32.65 23.87C32.65 23.79 32.73 23.69 32.78 23.57C32.83 23.45 32.89 23.32 32.94 23.16C33.07 22.8064 33.1802 22.4459 33.27 22.08C33.3767 21.6289 33.4535 21.1712 33.5 20.71C33.5296 20.2505 33.5296 19.7895 33.5 19.33C33.475 18.951 33.4283 18.5737 33.36 18.2C33.3379 18.0551 33.3079 17.9116 33.27 17.77C33.2517 17.6614 33.2249 17.5545 33.19 17.45C33.12 17.28 33.1 17.18 33.1 17.18Z" fill="#FFB800"/>
    <path d="M3.7701 17.25C3.73273 17.334 3.70262 17.4209 3.6801 17.51C3.64105 17.6148 3.60767 17.7216 3.5801 17.83C3.5801 17.95 3.5101 18.09 3.4801 18.26C3.40365 18.633 3.35022 19.0104 3.3201 19.39C3.28555 19.856 3.28555 20.324 3.3201 20.79C3.36174 21.2552 3.43863 21.7165 3.5501 22.17C3.64592 22.5364 3.76278 22.897 3.9001 23.25C3.9601 23.41 4.0301 23.54 4.0801 23.66C4.1239 23.7598 4.174 23.8566 4.2301 23.95C4.26718 24.0384 4.31415 24.1222 4.3701 24.2C4.348 24.1079 4.31083 24.02 4.2601 23.94L4.1301 23.63C4.0801 23.51 4.0201 23.38 3.9701 23.23C3.83646 22.8767 3.72294 22.5161 3.6301 22.15C3.53181 21.6977 3.45837 21.2404 3.4101 20.78C3.3805 20.3172 3.3805 19.8529 3.4101 19.39C3.43564 19.0143 3.48238 18.6404 3.5501 18.27C3.5501 18.11 3.6101 17.97 3.6301 17.84L3.7101 17.52C3.74374 17.4336 3.76397 17.3425 3.7701 17.25Z" fill="#FFB800"/>
  </g>
  <path d="M 128.888 148.5 L 129.266 136.998 L 132.668 136.998 L 134.828 144.315 L 134.945 144.315 L 137.096 136.998 L 140.489 136.998 L 140.876 148.5 L 138.59 148.5 L 138.482 144.36 L 138.383 139.581 L 138.239 139.581 L 135.98 147.159 L 133.784 147.159 L 131.516 139.581 L 131.372 139.581 L 131.273 144.369 L 131.174 148.5 Z" transform="matrix(1, 0, 0, 1, 11.081801, -85.296288)" style="fill: rgb(66, 90, 139); white-space: pre;"/>
  <path d="M 147.95 148.5 L 148.031 146.34 L 147.968 146.142 L 147.968 143.379 L 147.959 142.983 Q 147.959 142.119 147.486 141.714 Q 147.014 141.309 145.943 141.309 Q 145.034 141.309 144.237 141.547 Q 143.441 141.786 142.766 142.101 L 142.964 140.265 Q 143.36 140.058 143.868 139.873 Q 144.377 139.689 145.007 139.572 Q 145.637 139.455 146.366 139.455 Q 147.446 139.455 148.193 139.711 Q 148.94 139.968 149.385 140.445 Q 149.831 140.922 150.029 141.583 Q 150.227 142.245 150.227 143.046 L 150.227 148.5 Z M 145.061 148.707 Q 143.747 148.707 143.058 148.05 Q 142.37 147.393 142.37 146.178 L 142.37 145.926 Q 142.37 144.639 143.162 144.022 Q 143.954 143.406 145.673 143.172 L 148.175 142.83 L 148.31 144.315 L 146.006 144.648 Q 145.25 144.747 144.93 145.008 Q 144.611 145.269 144.611 145.773 L 144.611 145.863 Q 144.611 146.358 144.921 146.632 Q 145.232 146.907 145.898 146.907 Q 146.492 146.907 146.915 146.718 Q 147.338 146.529 147.612 146.218 Q 147.887 145.908 148.004 145.521 L 148.328 146.664 L 147.932 146.664 Q 147.788 147.231 147.468 147.694 Q 147.149 148.158 146.573 148.432 Q 145.997 148.707 145.061 148.707 Z" transform="matrix(1, 0, 0, 1, 11.081801, -85.296288)" style="fill: rgb(66, 90, 139); white-space: pre;"/>
  <path d="M 154.347 143.37 L 153.762 141.831 L 154.32 141.831 Q 154.563 140.76 155.202 140.148 Q 155.841 139.536 156.975 139.536 Q 157.209 139.536 157.398 139.567 Q 157.587 139.599 157.74 139.644 L 157.866 141.948 Q 157.668 141.885 157.407 141.853 Q 157.146 141.822 156.858 141.822 Q 155.94 141.822 155.296 142.227 Q 154.653 142.632 154.347 143.37 Z M 152.106 148.5 L 152.106 139.671 L 154.302 139.671 L 154.203 142.38 L 154.41 142.461 L 154.41 148.5 Z" transform="matrix(1, 0, 0, 1, 11.081801, -85.296288)" style="fill: rgb(66, 90, 139); white-space: pre;"/>
  <path d="M 164.746 148.5 L 161.848 144.612 L 161.065 144.612 L 161.065 143.109 L 161.857 143.109 L 164.647 139.671 L 167.311 139.671 L 163.729 144.018 L 163.729 143.55 L 167.446 148.5 Z M 159.076 148.5 L 159.076 136.602 L 161.371 136.602 L 161.371 148.5 Z" transform="matrix(1, 0, 0, 1, 11.081801, -85.296288)" style="fill: rgb(66, 90, 139); white-space: pre;"/>
  <path d="M 172.54 148.716 Q 170.272 148.716 169.165 147.672 Q 168.058 146.628 168.058 144.648 L 168.058 143.496 Q 168.058 141.534 169.093 140.481 Q 170.128 139.428 172.099 139.428 Q 173.431 139.428 174.322 139.896 Q 175.213 140.364 175.659 141.223 Q 176.104 142.083 176.104 143.28 L 176.104 143.595 Q 176.104 143.919 176.073 144.256 Q 176.041 144.594 175.987 144.891 L 173.899 144.891 Q 173.926 144.396 173.931 143.95 Q 173.935 143.505 173.935 143.145 Q 173.935 142.524 173.737 142.087 Q 173.539 141.651 173.134 141.426 Q 172.729 141.201 172.099 141.201 Q 171.172 141.201 170.731 141.714 Q 170.29 142.227 170.29 143.172 L 170.29 143.991 L 170.299 144.252 L 170.299 144.945 Q 170.299 145.359 170.43 145.71 Q 170.56 146.061 170.866 146.317 Q 171.172 146.574 171.681 146.718 Q 172.189 146.862 172.954 146.862 Q 173.782 146.862 174.534 146.677 Q 175.285 146.493 175.96 146.178 L 175.762 147.996 Q 175.159 148.329 174.345 148.522 Q 173.53 148.716 172.54 148.716 Z M 169.282 144.891 L 169.282 143.361 L 175.519 143.361 L 175.519 144.891 Z" transform="matrix(1, 0, 0, 1, 11.081801, -85.296288)" style="fill: rgb(66, 90, 139); white-space: pre;"/>
  <path d="M 181.188 148.689 Q 180.063 148.689 179.393 148.351 Q 178.722 148.014 178.425 147.33 Q 178.128 146.646 178.128 145.647 L 178.128 140.499 L 180.414 140.499 L 180.414 145.305 Q 180.414 146.025 180.743 146.362 Q 181.071 146.7 181.899 146.7 Q 182.385 146.7 182.835 146.596 Q 183.285 146.493 183.663 146.322 L 183.465 148.248 Q 183.015 148.455 182.435 148.572 Q 181.854 148.689 181.188 148.689 Z M 176.85 141.561 L 176.85 139.743 L 183.582 139.743 L 183.384 141.561 Z M 178.155 139.914 L 178.146 137.574 L 180.441 137.34 L 180.351 139.914 Z" transform="matrix(1, 0, 0, 1, 11.081801, -85.296288)" style="fill: rgb(66, 90, 139); white-space: pre;"/>
  <path d="M 131.669 166.5 L 131.669 155.439 L 134.036 155.439 L 134.036 166.5 Z M 128.393 156.969 L 128.393 154.998 L 137.294 154.998 L 137.294 156.969 Z" transform="matrix(1, 0, 0, 1, 11.081801, -85.296288)" style="fill: rgb(66, 90, 139); white-space: pre;"/>
  <path d="M 141.736 166.716 Q 139.468 166.716 138.361 165.672 Q 137.254 164.628 137.254 162.648 L 137.254 161.496 Q 137.254 159.534 138.289 158.481 Q 139.324 157.428 141.295 157.428 Q 142.627 157.428 143.518 157.896 Q 144.409 158.364 144.854 159.223 Q 145.3 160.083 145.3 161.28 L 145.3 161.595 Q 145.3 161.919 145.268 162.256 Q 145.237 162.594 145.183 162.891 L 143.095 162.891 Q 143.122 162.396 143.126 161.95 Q 143.131 161.505 143.131 161.145 Q 143.131 160.524 142.933 160.087 Q 142.735 159.651 142.33 159.426 Q 141.925 159.201 141.295 159.201 Q 140.368 159.201 139.927 159.714 Q 139.486 160.227 139.486 161.172 L 139.486 161.991 L 139.495 162.252 L 139.495 162.945 Q 139.495 163.359 139.625 163.71 Q 139.756 164.061 140.062 164.317 Q 140.368 164.574 140.876 164.718 Q 141.385 164.862 142.15 164.862 Q 142.978 164.862 143.729 164.677 Q 144.481 164.493 145.156 164.178 L 144.958 165.996 Q 144.355 166.329 143.54 166.522 Q 142.726 166.716 141.736 166.716 Z M 138.478 162.891 L 138.478 161.361 L 144.715 161.361 L 144.715 162.891 Z" transform="matrix(1, 0, 0, 1, 11.081801, -85.296288)" style="fill: rgb(66, 90, 139); white-space: pre;"/>
  <path d="M 150.598 166.725 Q 148.555 166.725 147.57 165.645 Q 146.584 164.565 146.584 162.612 L 146.584 161.532 Q 146.584 159.588 147.574 158.517 Q 148.564 157.446 150.598 157.446 Q 151.129 157.446 151.593 157.531 Q 152.056 157.617 152.439 157.761 Q 152.821 157.905 153.109 158.067 L 153.298 160.002 Q 152.857 159.723 152.313 159.534 Q 151.768 159.345 151.057 159.345 Q 149.941 159.345 149.424 159.916 Q 148.906 160.488 148.906 161.577 L 148.906 162.531 Q 148.906 163.611 149.442 164.196 Q 149.977 164.781 151.093 164.781 Q 151.804 164.781 152.353 164.596 Q 152.902 164.412 153.379 164.142 L 153.19 166.086 Q 152.749 166.338 152.083 166.531 Q 151.417 166.725 150.598 166.725 Z" transform="matrix(1, 0, 0, 1, 11.081801, -85.296288)" style="fill: rgb(66, 90, 139); white-space: pre;"/>
  <path d="M 160.623 166.5 L 160.623 161.199 Q 160.623 160.641 160.475 160.236 Q 160.326 159.831 159.984 159.606 Q 159.642 159.381 159.048 159.381 Q 158.526 159.381 158.139 159.57 Q 157.752 159.759 157.505 160.078 Q 157.257 160.398 157.14 160.803 L 156.672 159.543 L 157.221 159.543 Q 157.374 158.958 157.707 158.49 Q 158.04 158.022 158.616 157.747 Q 159.192 157.473 160.047 157.473 Q 161.064 157.473 161.694 157.855 Q 162.324 158.238 162.626 158.994 Q 162.927 159.75 162.927 160.866 L 162.927 166.5 Z M 154.872 166.5 L 154.872 154.602 L 157.167 154.602 L 157.167 157.32 L 157.122 160.065 L 157.176 160.236 L 157.176 166.5 Z" transform="matrix(1, 0, 0, 1, 11.081801, -85.296288)" style="fill: rgb(66, 90, 139); white-space: pre;"/>
  <path style="fill: rgb(51, 51, 51); white-space: pre;"/>
  <path d="M 113.15 63.827 Q 113.443 63.818 113.637 63.759 Q 113.83 63.7 113.945 63.572 Q 114.06 63.443 114.108 63.233 Q 114.156 63.023 114.156 62.706 Q 114.156 62.386 114.096 62.185 Q 114.035 61.984 113.909 61.869 Q 113.783 61.755 113.588 61.714 Q 113.393 61.673 113.123 61.673 L 113.123 61.49 L 115.998 61.49 L 116.65 62.24 L 117.107 61.49 L 119.967 61.49 L 119.967 61.673 Q 119.697 61.673 119.507 61.714 Q 119.316 61.755 119.195 61.869 Q 119.074 61.984 119.018 62.185 Q 118.963 62.386 118.963 62.706 Q 118.963 63.023 119.01 63.233 Q 119.057 63.443 119.172 63.572 Q 119.287 63.7 119.48 63.759 Q 119.674 63.818 119.967 63.827 L 119.967 64.011 L 116.279 64.011 L 116.279 63.827 Q 116.473 63.822 116.61 63.779 Q 116.748 63.736 116.84 63.661 Q 116.932 63.587 116.985 63.486 Q 117.039 63.384 117.065 63.262 Q 117.092 63.14 117.1 62.999 Q 117.107 62.859 117.107 62.706 L 117.107 61.97 L 115.785 64.081 L 114.393 62.355 L 114.393 62.706 Q 114.393 62.859 114.399 62.999 Q 114.406 63.14 114.434 63.262 Q 114.461 63.384 114.515 63.486 Q 114.568 63.587 114.66 63.66 Q 114.752 63.734 114.889 63.778 Q 115.025 63.822 115.221 63.827 L 115.221 64.011 L 113.15 64.011 Z" style="fill: rgb(255, 255, 255); white-space: pre;"/>
  <path d="M 120.832 63.827 Q 121.125 63.818 121.318 63.759 Q 121.511 63.7 121.627 63.572 Q 121.742 63.443 121.79 63.233 Q 121.838 63.023 121.838 62.706 L 121.838 61.728 Q 121.603 61.771 121.386 61.865 Q 121.17 61.958 120.991 62.097 Q 120.812 62.236 120.679 62.413 Q 120.547 62.591 120.482 62.802 L 120.277 62.802 Q 120.277 62.726 120.28 62.621 Q 120.283 62.517 120.288 62.399 Q 120.293 62.281 120.301 62.155 Q 120.31 62.029 120.321 61.908 Q 120.332 61.788 120.345 61.681 Q 120.359 61.574 120.377 61.49 L 125.33 61.49 Q 125.347 61.574 125.361 61.681 Q 125.375 61.788 125.385 61.908 Q 125.396 62.029 125.405 62.155 Q 125.414 62.281 125.419 62.399 Q 125.424 62.517 125.426 62.621 Q 125.429 62.726 125.429 62.802 L 125.224 62.802 Q 125.154 62.605 125.013 62.428 Q 124.873 62.251 124.69 62.11 Q 124.508 61.968 124.296 61.869 Q 124.084 61.771 123.869 61.728 L 123.869 62.769 Q 123.873 63.066 123.924 63.265 Q 123.974 63.464 124.09 63.586 Q 124.205 63.708 124.395 63.763 Q 124.586 63.818 124.871 63.827 L 124.871 64.011 L 120.832 64.011 Z" style="fill: rgb(255, 255, 255); white-space: pre;"/>
</svg>