<?xml version="1.0" standalone="no"?>
<!DOCTYPE svg PUBLIC "-//W3C//DTD SVG 20010904//EN"
 "http://www.w3.org/TR/2001/REC-SVG-20010904/DTD/svg10.dtd">
<svg version="1.0" xmlns="http://www.w3.org/2000/svg"
 width="24.000000pt" height="24.000000pt" viewBox="0 0 24.000000 24.000000"
 preserveAspectRatio="xMidYMid meet">

<g transform="translate(0.000000,24.000000) scale(0.100000,-0.100000)"
fill="#000000" stroke="none">
<path d="M170 210 c0 -26 3 -30 29 -30 23 0 30 5 33 25 6 30 2 35 -34 35 -24
0 -28 -4 -28 -30z m30 0 c0 -11 -4 -20 -10 -20 -5 0 -10 9 -10 20 0 11 5 20
10 20 6 0 10 -9 10 -20z"/>
<path d="M133 105 c0 -44 2 -61 4 -37 2 23 2 59 0 80 -2 20 -4 1 -4 -43z"/>
<path d="M7 153 c-4 -3 -7 -19 -7 -35 0 -37 37 -57 75 -40 19 9 25 19 25 42 0
16 -4 30 -9 30 -5 0 -16 3 -25 6 -10 4 -16 1 -16 -10 0 -9 -6 -13 -15 -10 -8
4 -12 10 -9 15 6 10 -9 12 -19 2z m37 -46 c13 -20 5 -30 -18 -21 -9 3 -16 15
-16 26 0 22 18 20 34 -5z"/>
<path d="M170 120 c0 -27 3 -30 30 -30 27 0 30 3 30 30 0 27 -3 30 -30 30 -27
0 -30 -3 -30 -30z m30 0 c0 -11 -4 -20 -10 -20 -5 0 -10 9 -10 20 0 11 5 20
10 20 6 0 10 -9 10 -20z"/>
<path d="M170 30 c0 -26 3 -30 29 -30 19 0 30 6 33 18 8 29 -2 42 -33 42 -26
0 -29 -4 -29 -30z m30 0 c0 -11 -4 -20 -10 -20 -5 0 -10 9 -10 20 0 11 5 20
10 20 6 0 10 -9 10 -20z"/>
</g>
</svg>
